<?xml version="1.0" encoding="UTF-8" standalone="no" ?>
<!DOCTYPE svg PUBLIC "-//W3C//DTD SVG 1.1//EN" "http://www.w3.org/Graphics/SVG/1.1/DTD/svg11.dtd">
<svg xmlns="http://www.w3.org/2000/svg" xmlns:xlink="http://www.w3.org/1999/xlink" version="1.1" width="350" height="350" viewBox="0 0 350 350" xml:space="preserve">
<desc>Created with Fabric.js 1.7.22</desc>
<defs>
</defs>
<g id="icon" style="stroke: none; stroke-width: 1; stroke-dasharray: none; stroke-linecap: butt; stroke-linejoin: miter; stroke-miterlimit: 10; fill: none; fill-rule: nonzero; opacity: 1;" transform="translate(-1.9444444444444287 -1.9444444444444287) scale(3.89 3.89)" >
	<path d="M 82.317 32.776 H 17.507 c -0.552 0 -1 0.448 -1 1 v 42.279 c 0 0.553 0.448 1 1 1 h 64.811 c 0.553 0 1 -0.447 1 -1 V 33.776 C 83.317 33.224 82.87 32.776 82.317 32.776 z M 18.507 66.49 l 14.52 -13.517 l 11.091 13.711 c 0.176 0.218 0.436 0.352 0.716 0.369 c 0.278 0.012 0.554 -0.083 0.756 -0.278 l 10.788 -10.403 l 16.07 18.685 h -53.94 V 66.49 z M 81.317 75.056 h -6.233 L 57.203 54.264 c -0.179 -0.208 -0.437 -0.334 -0.711 -0.347 c -0.272 -0.021 -0.543 0.088 -0.741 0.279 L 44.986 64.577 L 33.907 50.881 c -0.174 -0.216 -0.43 -0.349 -0.707 -0.368 c -0.275 -0.021 -0.549 0.076 -0.752 0.266 L 18.507 63.758 V 34.776 h 62.811 V 75.056 z" style="stroke: none; stroke-width: 1; stroke-dasharray: none; stroke-linecap: butt; stroke-linejoin: miter; stroke-miterlimit: 10; fill: rgb(0,0,0); fill-rule: nonzero; opacity: 1;" transform=" matrix(1 0 0 1 0 0) " stroke-linecap="round" />
	<path d="M 68.503 54.007 c -4.09 0 -7.417 -3.327 -7.417 -7.416 c 0 -4.09 3.327 -7.417 7.417 -7.417 s 7.417 3.328 7.417 7.417 C 75.92 50.68 72.593 54.007 68.503 54.007 z M 68.503 41.173 c -2.987 0 -5.417 2.43 -5.417 5.417 c 0 2.986 2.43 5.416 5.417 5.416 s 5.417 -2.43 5.417 -5.416 C 73.92 43.604 71.49 41.173 68.503 41.173 z" style="stroke: none; stroke-width: 1; stroke-dasharray: none; stroke-linecap: butt; stroke-linejoin: miter; stroke-miterlimit: 10; fill: rgb(0,0,0); fill-rule: nonzero; opacity: 1;" transform=" matrix(1 0 0 1 0 0) " stroke-linecap="round" />
	<path d="M 89 26.456 h -6.479 L 78.307 7.407 c -0.058 -0.259 -0.215 -0.485 -0.438 -0.627 c -0.224 -0.142 -0.495 -0.189 -0.754 -0.133 L 0.784 23.536 c -0.259 0.058 -0.485 0.215 -0.627 0.439 s -0.19 0.495 -0.133 0.753 l 9.801 44.294 v 13.355 c 0 0.553 0.448 1 1 1 H 89 c 0.553 0 1 -0.447 1 -1 V 27.456 C 90 26.903 89.553 26.456 89 26.456 z M 2.192 25.272 L 76.569 8.815 l 3.903 17.64 H 10.824 c -0.552 0 -1 0.448 -1 1 v 32.308 L 2.192 25.272 z M 88 81.377 H 11.824 V 28.456 H 88 V 81.377 z" style="stroke: none; stroke-width: 1; stroke-dasharray: none; stroke-linecap: butt; stroke-linejoin: miter; stroke-miterlimit: 10; fill: rgb(0,0,0); fill-rule: nonzero; opacity: 1;" transform=" matrix(1 0 0 1 0 0) " stroke-linecap="round" />
</g>
</svg>